<svg id="Layer_1" enable-background="new 0 0 504.503 504.503" height="512" viewBox="0 0 504.503 504.503" width="512" xmlns="http://www.w3.org/2000/svg"><g><g><path d="m419.091 393.453h-333.679v-180.856c0-91.753 74.38-166.133 166.133-166.133h1.412c91.753 0 166.133 74.38 166.133 166.133v180.856z" fill="#ff5e57"/><path d="m252.958 46.463h-1.412c-4.816 0-9.582.217-14.294.619 85.059 7.25 151.839 78.578 151.839 165.515v180.856h30v-180.857c0-91.752-74.38-166.133-166.133-166.133z" fill="#f7372f"/><path d="m201.412 393.453v-163.259c0-27.685 22.523-50.208 50.208-50.208h1.263c27.685 0 50.208 22.523 50.208 50.208v163.259z" fill="#de2a2e"/><path d="m252.883 179.986h-1.263c-4.993 0-9.813.743-14.368 2.106 20.704 6.196 35.84 25.41 35.84 48.102v163.259h30v-163.259c-.001-27.685-22.524-50.208-50.209-50.208z" fill="#cf1d21"/></g><g><path d="m476.017 504.503h-447.53c-9.196 0-15.374-9.417-11.698-17.832l41.87-95.868c4.6-10.533 15.07-17.35 26.646-17.35h333.895c11.576 0 22.046 6.817 26.646 17.35l41.87 95.868c3.674 8.416-2.503 17.832-11.699 17.832z" fill="#c2d8ed"/><path d="m487.715 486.671-41.87-95.868c-4.6-10.533-15.07-17.35-26.646-17.35h-30c11.576 0 22.046 6.818 26.646 17.35l41.87 95.868c3.675 8.416-2.502 17.832-11.698 17.832h30c9.196 0 15.373-9.416 11.698-17.832z" fill="#b4cae0"/><g><path d="m367.764 219.394c-4.142 0-7.5-3.357-7.5-7.5 0-59.021-48.454-107.037-108.013-107.037-4.142 0-7.5-3.357-7.5-7.5s3.358-7.5 7.5-7.5c67.83 0 123.013 54.746 123.013 122.037 0 4.143-3.358 7.5-7.5 7.5z" fill="#fff"/></g></g><g fill="#ffeebd"><path d="m32.109 11.672c-2.932-2.927-7.681-2.922-10.606.009-2.927 2.932-2.923 7.68.009 10.606l61.174 61.073c1.464 1.462 3.381 2.192 5.299 2.192 1.921 0 3.843-.734 5.308-2.201 2.927-2.932 2.923-7.68-.009-10.606z"/><path d="m107.662 4.866c-1.457-3.877-5.784-5.844-9.658-4.383-3.878 1.456-5.84 5.78-4.384 9.658l15.821 42.118c1.13 3.009 3.987 4.864 7.022 4.864.876 0 1.768-.154 2.636-.48 3.878-1.457 5.84-5.781 4.384-9.659z"/><path d="m66.846 103.13-44.299-16.321c-3.888-1.436-8.198.559-9.63 4.444-1.432 3.887.558 8.198 4.445 9.63l44.299 16.321c.855.315 1.731.465 2.592.465 3.053 0 5.921-1.878 7.039-4.909 1.431-3.887-.559-8.198-4.446-9.63z"/><path d="m483.001 11.681c-2.927-2.933-7.676-2.936-10.606-.009l-61.175 61.073c-2.932 2.927-2.936 7.675-.009 10.606 1.465 1.468 3.386 2.201 5.308 2.201 1.917 0 3.835-.73 5.299-2.192l61.175-61.072c2.931-2.927 2.935-7.675.008-10.607z"/><path d="m406.499.483c-3.875-1.458-8.201.505-9.658 4.383l-15.821 42.118c-1.457 3.878.506 8.202 4.384 9.659.869.326 1.76.48 2.636.48 3.035 0 5.892-1.855 7.022-4.864l15.821-42.118c1.457-3.878-.506-8.202-4.384-9.658z"/><path d="m491.587 91.253c-1.433-3.888-5.743-5.88-9.63-4.444l-44.299 16.321c-3.887 1.432-5.877 5.743-4.445 9.63 1.117 3.032 3.985 4.909 7.039 4.909.861 0 1.737-.149 2.592-.465l44.299-16.321c3.886-1.431 5.876-5.743 4.444-9.63z"/></g></g></svg>